<svg xmlns="http://www.w3.org/2000/svg" width="48" height="48" fill="none"><g clip-path="url(#a)"><g clip-path="url(#b)"><path fill="url(#c)" d="M36 0H12C5.373 0 0 5.373 0 12v24c0 6.627 5.373 12 12 12h24c6.627 0 12-5.373 12-12V12c0-6.627-5.373-12-12-12z"/><path fill="#EDF593" fill-opacity=".15" d="m27.75 18.583 6.667-6.666H13.583l6.667 6.666"/><path stroke="#EDF593" stroke-linecap="round" stroke-linejoin="round" stroke-width="2" d="m27.75 18.583 6.667-6.666H13.583l6.667 6.666"/><path fill="#EDF593" fill-opacity=".15" stroke="#EDF593" stroke-linecap="round" stroke-linejoin="round" stroke-width="2" d="M24 36.083a8.75 8.75 0 1 0 0-17.5 8.75 8.75 0 0 0 0 17.5z"/></g></g><defs><clipPath id="a"><path fill="#fff" d="M0 0h48v48H0z"/></clipPath><clipPath id="b"><path fill="#fff" d="M0 0h48v48H0z"/></clipPath><linearGradient id="c" x1="24" x2="24" y1="0" y2="48" gradientUnits="userSpaceOnUse"><stop stop-color="#20232C"/><stop offset="1" stop-color="#14171F"/></linearGradient></defs></svg>